<?xml version="1.0" encoding="utf-8"?>
<svg version="1.1" id="Layer_1" xmlns="http://www.w3.org/2000/svg" xmlns:xlink="http://www.w3.org/1999/xlink" x="0px" y="0px"
     viewBox="0 0 543 500" style="enable-background:new 0 0 543 500;" xml:space="preserve">
<style type="text/css">
    .st0{fill:#F8951A;}
    .st1{fill:#FFFFFF;}
    .st2{fill:#5A5C5C;}
</style>
<path class="st0" d="M79,245c0-108.7,87.2-197,194.5-197S468,136.3,468,245s-87.2,197-194.5,197S79,353.7,79,245z"/>
<path class="st1" d="M153,381.5c0-36.7,52-66.5,116-66.5s116,29.8,116,66.5S333,448,269,448S153,418.2,153,381.5z"/>
<path class="st1" d="M367.1,418.9c-39.8,0.8-144.1,0.8-188.2,0.1l-21.6-14.7c0.7-1,0.3-3.6-1.1-7.8c-10.3-30-12.2-52.7-8-92.4
    c1.9-18.1,7.7-43.3,12.2-53.1c0.7-1.6,1-5.7,1-14.7c0.1-45.9,21.1-97.9,43.9-108.7c5.7-2.7,6.4-2.7,13.4,0.8
    c14,7,24.7,22.3,32.6,46.8c2.3,7,1.5,6.6,14.2,6.6c6.2,0,14.7,0.3,18.9,0.6c9.3,0.8,9.3,0.7,11.8-7.6c9.1-31.5,31.8-54.6,46.1-47.1
    c24.7,13,45.1,65.8,43.5,113c-0.4,11.2-0.3,12,1.5,17.3c9.2,27.2,8.4,106.9-1.3,129.3c-0.4,0.8-1.3,3.6-2.2,6.3
    c-0.8,2.6-2.7,7.2-4.1,10.1c-1.7,3.5-2.2,6.5-1.7,7.8L367.1,418.9z"/>
<g>
    <path class="st2" d="M205.5,144.4c-12.3,13-23.4,37.3-27.9,61c-4.4,23.8-3.1,30.9,4.2,22c10.9-13.4,30.9-27.5,48.4-34.1
        c9.3-3.5,10.3-4.4,9.7-8c-3.4-18.1-20.3-45.1-28.3-45.1C210,140.1,208.5,141.2,205.5,144.4z"/>
    <path class="st2" d="M329.1,143.5c-7.9,6.4-14.7,18.1-20.4,35.1c-3.5,10.5-3.6,10.3,7.1,14.3c16.5,6.1,37.9,20.9,48.2,33.3
        c8,9.6,9.6,4.5,5.5-18.2c-4.7-26-14.4-48.1-27.9-63.2C336.3,138.9,334.9,138.8,329.1,143.5L329.1,143.5z"/>
    <path class="st2" d="M209.5,232.5c-27.2,10.1-33.9,48-11.9,67.7c22.5,20.2,56.8,1.8,56.7-30.5C254.1,244.5,230.4,224.8,209.5,232.5
        L209.5,232.5z"/>
    <path class="st2" d="M323.9,256.9c-9.4,4.3-10.4,15.1-1.9,20.8c8.9,6,21-5.3,16-15C335.2,257.3,328.8,254.6,323.9,256.9z"/>
    <path class="st1" d="M224.3,259.2c1.1,0.6,2.7,2.1,3.5,3.4c6,9.8-7.9,20.5-15.4,11.9C204.6,265.7,213.7,253.9,224.3,259.2z"/>
    <path class="st2" d="M257.4,318.3c-8.7,3-12.3,7.6-12.2,15.3c0.1,9.2,8.5,21.7,17.7,26.6c5.6,3,5.4,1.9,5.2,22.5
        c-0.1,19.4,0.1,20.6,4.7,22.2c7.3,2.6,8.9-1.3,9.3-23.8l0.4-18.9l4.1-2.2c18.2-9.8,23.6-32.2,9.6-39.4
        C288.6,316.7,265.9,315.4,257.4,318.3L257.4,318.3z"/>
</g>
</svg>